<?xml version="1.0" encoding="UTF-8"?>
<svg id="_레이어_2" data-name="레이어 2" xmlns="http://www.w3.org/2000/svg" viewBox="0 0 1097.5 172.16">
  <defs>
    <style>
      .cls-1 {
        fill: #dc0019;
      }
    </style>
  </defs>
  <g id="Layer_1" data-name="Layer 1">
    <g>
      <path class="cls-1" d="m486.28,3.35l-29.2,72.37-.51,1.26.51,1.26,35.48,87.21h-35.24l-20.12-53.86-3.13-8.39-3.13,8.39-20.12,53.86h-20.79l33.18-79.76.53-1.27-.52-1.27L390.88,3.35h34.79l17.42,47.1,3.14,8.48,3.14-8.48,17.42-47.1h19.49m4.96-3.35h-26.78l-18.23,49.28L428,0h-42.08l34.21,84.39-35.11,84.39h28.13l20.93-56.03,20.93,56.03h42.53l-37.36-91.82L491.23,0h0Z"/>
      <path class="cls-1" d="m638.39,106.76l-12.34,1.96c-3.43-13.9-12.37-23.36-25.5-28.65,14.36-6.53,22.39-16.76,23.57-33.28l11.87,2.35c.05-.96.16-1.86.16-2.87C636.16,15.34,618.46,0,584.7,0h-60.2v25.63l-11.77-2.33v106.1l11.77-1.87v41.23h63.74c31.87,0,51.23-15.34,51.23-51.23,0-3.87-.44-7.39-1.08-10.76Zm-74.94-83.16h10.39c14.65,0,20.06,6.26,21.75,16.12l-11.54-2.29c.32,2.45.45,5.11.45,7.93,0,16.05-3.31,26.44-21.72,26.44h-11.1v-39.39l11.77,2.33v-11.15Zm13.22,120.83h-13.22v-25.79l-11.77,1.87v-26.75h13.93c16.3,0,21.09,9.18,21.83,23.78l11.86-1.88c.01.61.03,1.23.03,1.86,0,14.87-4.01,26.92-22.66,26.92Z"/>
      <polygon class="cls-1" points="706.87 56.19 706.87 25.02 757.72 25.02 757.72 0 667.91 0 667.91 48.2 654.38 45.44 654.38 111.79 662.72 110.43 662.72 168.8 757.72 168.8 757.72 143.78 701.68 143.78 701.68 103.63 693.34 104.99 693.34 91.4 736.96 91.4 736.96 66.38 693.34 66.38 693.34 53.43 706.87 56.19"/>
      <path class="cls-1" d="m873.97,85.48l-11.91-2.36-.59-2.91L845.1,0h-49.1l-15.73,77.1-3.37,16.53,8.33-1.32-15.6,76.48h28.56l6.14-31.4h39.66l6.13,31.4h40.84l-16.99-83.3Zm-65.16,28.3l6.48-32.97-8.38,1.33,7.74-39.41,8.15,42.81,2.27.45,9.5,1.88,4.94,25.91h-30.69Z"/>
      <polygon class="cls-1" points="947.8 58.78 947.8 25.49 981.56 25.49 981.56 0 875.09 0 875.09 25.49 908.84 25.49 908.84 63.56 899.18 65.13 899.18 105.37 908.86 107.35 908.86 168.78 947.82 168.78 947.82 114.57 938.17 112.6 938.17 60.35 947.8 58.78"/>
      <path class="cls-1" d="m1097.43,112.43h-23.95c-2.29-30.82-33.81-41.73-52.54-54.79l6.33-1.3c-.38-5.59-.95-7.81.03-14.79,1.37-9.77,5.67-16.53,14.87-16.53,11.29,0,16.7,8.85,17.34,27.84.04,1.27.13,2.44.13,3.8h33.05c.13-3.19.08-6.17-.04-9.05C1091.19,12.93,1072.04,0,1042.18,0c-32.11,0-52.41,18.18-52.41,48.16,0,3.03.26,5.9.71,8.64l-8.92,2.2c11.59,30.78,53.44,30.56,60.93,57.53l20.16,2.84c-1.23,15.73-6.25,23.85-14.22,26.62-2.06.65-4.22,1.03-6.39,1.1-.25,0-.5.03-.76.03-12.89-.01-20.78-8.75-21.6-31.74-.04-.97-.08-1.93-.09-2.96h-34.47c-1.4,40.46,20.14,59.36,55.66,59.71v.02c.17,0,.33,0,.5,0,.17,0,.33,0,.5,0,10.1,0,18.57-1.61,25.59-4.43,19.91-7.74,31.09-25.78,30.07-55.29Z"/>
      <path class="cls-1" d="m109.6,119.94c0,34.21-18.45,48.84-48.83,48.84H0V0h57.39C89.57,0,106.44,14.63,106.44,44.11c0,18.23-7.88,29.03-22.73,35.78,16.2,6.53,25.88,19.58,25.88,40.06Zm-72.46-47.93h10.58c17.55,0,20.7-9.9,20.7-25.21,0-14.4-3.38-24.31-21.38-24.31h-9.9v49.51Zm34.21,47.93c0-16.43-3.83-27.01-20.93-27.01h-13.28v52.66h12.6c17.78,0,21.6-11.48,21.6-25.66Z"/>
      <path class="cls-1" d="m261.09,168.78V0h52.44C353.13,0,369.56,18.45,369.56,53.78v60.99c0,34.66-16.43,54.01-56.03,54.01h-52.44Zm49.74-24.08c14.85,0,20.48-9.23,20.48-23.18V46.13c0-14.85-5.63-23.18-20.48-23.18h-11.93v121.75h11.93Z"/>
      <path class="cls-1" d="m169.1,0v125.8c0,13.73,6.53,22.28,18.68,22.28s18.45-8.56,18.45-22.28V0h30.61v121.3c0,33.53-20.48,50.86-51.99,50.86-38.48,0-54.01-21.38-54.01-50.86V0h38.26Z"/>
    </g>
  </g>
</svg>