<?xml version="1.0" encoding="UTF-8"?>
<svg id="_레이어_2" data-name="레이어 2" xmlns="http://www.w3.org/2000/svg" viewBox="0 0 1332.67 430.2">
  <defs>
    <style>
      .cls-1 {
        fill: #fff;
      }

      .cls-2 {
        fill: #dc0019;
      }
    </style>
  </defs>
  <g id="Layer_1" data-name="Layer 1">
    <g>
      <path class="cls-2" d="m1210.04,357.84c-8.22-8.3-18.12-12.46-29.68-12.46s-21.78,4.15-30.07,12.46c-8.28,8.3-12.43,18.28-12.43,29.92s4.15,21.63,12.46,29.95c8.3,8.33,18.28,12.49,29.92,12.49s21.47-4.16,29.74-12.49c8.26-8.32,12.4-18.28,12.4-29.89s-4.11-21.67-12.34-29.98Zm-5.45,55.13c-6.82,6.95-14.95,10.43-24.41,10.43s-17.71-3.48-24.52-10.43c-6.82-6.95-10.22-15.36-10.22-25.21s3.4-18.15,10.19-25.12c6.79-6.97,15.02-10.46,24.67-10.46s17.57,3.5,24.35,10.49c6.77,7,10.16,15.36,10.16,25.09s-3.41,18.26-10.22,25.21Z"/>
      <path class="cls-2" d="m1201.46,377.87c0-4.25-1.52-7.73-4.56-10.43-3.04-2.7-7.66-4.05-13.86-4.05h-22.65v48.81h10.43v-19.73h11.68l7.93,19.73h10.97l-9-21.46c6.04-2.5,9.06-6.8,9.06-12.88Zm-19.9,6.86h-10.73v-13.65h11.5c5.56,0,8.35,2.23,8.35,6.68s-3.04,6.97-9.12,6.97Z"/>
      <path class="cls-2" d="m1194.69,213.29s0,0,0,0h0S1332.67,0,1332.67,0l-664.43,110.87v-21.62c-3.19,5.21-7.03,11.5-11.26,18.44L276,0l-65.4,101.1c-7.08-.89-14.59-1.42-22.5-1.42-38.6,0-62.13,15.75-62.19,38.11,0,1.77.15,3.46.45,5.08,3.52-19.49,26.29-32.8,61.74-32.8,5.61,0,11.01.27,16.21.74l-39.94,61.73c-33.47-.47-50.31-14.48-50.33-34.95v10.37c0,19.1,14.65,32.59,43.78,34.7L0,426.64l666.33-111.19,390.34,111.19,125.53-194.05c5.61-.24,10.17-1.66,14.55-3.93v-10.39h0c-2.28,1.18-4.61,2.12-7.1,2.8l5.03-7.78Z"/>
      <path class="cls-1" d="m914.83,140.98c0-7.77,6.02-16.95,15.82-16.95,5.62,0,10.44,3.68,10.44,10.87,0,8.35-6.76,16.56-15.41,16.56-7.18,0-10.85-4.33-10.85-10.48m114.16,81.09c20.04-3.31,43.86-24.03,43.86-38.91,0-2.63-1.16-4.37-4.05-4.37-10.38,0-24.87,15.86-39.81,43.28m-230.27.12c20.04-3.26,44.03-22.95,44.03-39.05,0-2.61-1.44-4.35-4.27-4.35-12.05,0-27.88,21.53-39.76,43.4m-220.07-28.84c.85-1.45,1.31-3.42,1.31-4.88,0-5.11-3.37-8.05-9.06-8.05-9.97,0-19.92,6.88-33.53,24.09-11.72,14.8-23.69,36.88-23.69,46.47,0,2.51.67,5.35,5.75,5.35s13.39-3.67,25.36-17.12c11.3-12.55,24.16-29.21,33.85-45.87m-84.85,42.44c-14.6,15.74-32.03,32.25-50.3,32.25-10.41,0-14.67-5.91-14.67-12.99,0-4.84,1.95-10.7,5.79-18.16l-5.79,6.07c-12.79,13.23-28.87,24.98-43.72,24.98-9.68,0-15.71-5.2-15.71-13.88,0-6.92,4.76-18.24,16.6-34.54l-7.85,7.51c-37.15,35.58-75.1,57.22-116.1,57.22-30.05,0-39.63-13.37-39.63-29.18,0-3.4.75-7.16.75-7.16l-5.2,6.98c-14.79,18.86-26.51,29.32-41.01,29.32-12.04,0-22.56-5.96-22.56-16.61,0-6.34,3.53-13.08,8.55-21.39,10.19-16.9,38.23-58.77,59.38-89.22-13.54,8.42-32.28,15.58-56.23,15.58-34.63,0-52.05-14.16-52.05-35,0-27.08,27.69-45.02,72.59-45.02,29.73,0,53.5,6.59,71.78,13.49,2.22-3.06,4.07-5.57,6.03-8.07l30.45-1.31c-2.81,3.9-7.87,10.88-13.73,19.13,5.52,2.63,11.11,5.46,16.51,8.38,18.78-24,36.3-34.92,59.11-34.92,24.63,0,33.86,14.15,33.86,28.59,0,13.09-7.62,28.13-16.61,37.19-12.15,12.24-28.84,17.95-42.37,20.93,7.47,4.13,21.13,10.13,21.13,31.93,0,18.31-9.89,35.07-21.52,48.14,22.34-12.95,54.83-43.94,69.04-61.46,3.28-4.09,9.21-12.32,12.24-16.64l26.56-1.66s-33.88,51.53-41.2,64.19c-4.11,7.15-5.2,10.32-5.2,12.75,0,1.64,1,3.32,4.04,3.32,10.28,0,29.66-17.46,43.45-35.46,6.3-8.25,29.07-43,29.07-43l26.97-1.68c-21.84,33.74-29,45.11-29,45.11-7.06,11.42-12.99,21.64-14.55,27.01-.48,1.65-.71,3.03-.71,4.17,0,2.62,1.29,3.92,3.86,3.92,15.69,0,43.77-37.26,52.7-48.6,16.42-20.84,36.34-35.32,57.84-35.32,9.77,0,16.09,3.76,19.11,10.18,13.56-22.42,55.82-91.96,55.82-91.96l26.92-1.65c-20.15,32.94-66.75,109.47-69.77,114.6-15.93,27.01-23.93,40.92-23.93,48.32,0,2.67,1.08,4.51,4.23,4.51,8.77,0,26.01-13.08,61.9-58.54,3.24-4.13,11.67-15.95,14.64-20.38l25.62-1.29c-14.29,21.54-34,50.78-42.2,66.21-2.58,4.84-3.94,8.01-3.94,10.43s1.42,3.79,4.22,3.79c9.73,0,27.9-14.73,54.61-52.69,6.36-9.05,11.42-17.11,17.42-26.4l25.31-1.38c-7.14,11.49-21.5,35.35-23.06,37.91-12.03,19.66-18.59,32.45-18.59,38.07,0,2.76,1.32,4.44,4.84,4.44,18.49,0,44.37-33.67,50.51-51.54-.37-12.13,2.27-22.97,6.18-28.73,1.9-2.8,5-5.36,10.09-5.36,3.97,0,6.96,1.94,6.96,4.49,0,4.82-5.34,18.34-14.75,34.2,2.67,6.36,8.13,10.24,14.66,12.09,9.89-19.22,34.3-49.78,64.9-49.78,10.96,0,16.04,4.1,16.04,12.6,0,16.15-24.87,38.84-58.71,43.57-2.69,5.72-5.62,12.66-5.62,18.94,0,5.84,2.67,10.09,11,10.09,27.07,0,60.02-41.32,77.86-64.92,1.4-1.78,8.33-11.39,10.27-14.59l25.45-1.49c-21.49,34.17-28.46,45.6-28.46,45.6-6.91,11.05-14.86,25.08-14.86,30.68,0,3.01,1.64,4.3,4.3,4.3,10.15,0,28.72-16.77,55.84-44.6,11.31-11.66,23.97-24.9,31.79-33.59,2.66-10.78,8.22-15.58,14.62-15.58,5.22,0,7.89,3.24,7.89,7.44,0,5.63-4.41,9.34-9.61,10.35-.18,1.1-.28,3.23-.28,4.46,0,10.33,1.11,18.42,1.11,29.02s-1.68,19.96-7.96,29.38c13.17-10.65,39.59-35.67,55.36-50.5,16.2-15.22,31.6-21.14,43.91-21.14,10.26,0,16.23,3.64,16.23,12.6,0,21.21-34.49,40.86-58.61,43.46-2.51,4.62-5.89,13.08-5.87,20.1,0,5.68,3.3,9.07,9.86,9.07,18.7,0,37.89-19.65,52.45-38.24,23.14-29.54,34.3-45.33,51.84-45.33,9.41,0,13.91,4.97,13.91,11.71,0,8.6-4.16,15.76-12.29,30.77,27.33-35.16,40.49-42.78,50.2-42.78,7.02,0,11.43,3.4,11.5,8.09-9.73,3.07-19.1,15.81-19.1,25.95,0,4.39,1.67,8.32,7.38,8.32,3.24,0,5.95-.9,9.14-2.63l2.06,4.98c-4.83,2.5-9.86,3.98-16.28,3.98-12.26,0-18.4-5.9-18.4-15.49,0-5.43,2.43-12.19,6.54-18.06-16.16,13.91-48.61,56.55-60.52,75.98l-25.55.98c3.43-5.82,25.15-38.25,40.18-64.68,4.69-8.25,7.2-12.49,7.2-16.04,0-1.89-1.08-2.86-2.92-2.86-8.08,0-21.74,17.16-39.42,40.03-12.96,16.76-36.84,45.69-67.94,45.69-16.19,0-23.63-8.67-23.63-20.11,0-10.32,4.12-19.73,8.98-28.31-7.89,7.06-15.08,13.68-22.21,20.14-14.35,12.95-32.47,28.78-57.97,28.78-13.4,0-21.04-5.74-21.04-12.27,0-3.48,2.47-6.23,5.74-6.23,8.36,0,5.57,12.28,16.82,12.28,12.72,0,23.1-11.84,29.92-50,.91-5.07,2.92-15.29,4.29-21.64-19.79,21.21-33.64,35.31-39.69,41.21-17.21,16.79-37.08,36.12-55.8,36.12-10.78,0-16.65-5.4-16.65-14.58,0-6.12,2.47-13.7,9.77-26.25-14.83,15.91-38.69,40.72-67.42,40.72-16.99,0-24.87-8.41-24.87-21.1,0-5.74,1.74-12.6,4.53-18.88-6.51-2.03-12.17-5.6-15.71-11.6-7.65,11.84-17.16,24.32-29.74,35.59-13.62,12.2-25.84,15.94-35.43,15.94-10.65,0-17.01-5.04-17.01-14.41,0-7.08,3.54-13.84,6.9-20.48-13.77,17.37-31.8,35.01-51.43,35.01-8.61,0-15.65-4.16-15.65-13.95,0-6.77,3.66-13.67,9.51-23.42-12.04,13.33-32.09,37.35-54.36,37.35-10.3,0-15.63-5.35-15.63-14.16,0-7.37,3.35-14.66,6.18-20.43-2.8,3.42-5.94,6.96-7.96,9.25-15.85,17.94-29.6,25.42-43.32,25.42-10.59,0-17.13-5.85-17.13-15.74,0-4.84,2.01-11.2,4.15-16.28m-256.24-100.58s16.37-22.82,16.61-23.17c-15.54-5.99-38.51-12.36-66.08-12.36-38.6,0-62.13,15.75-62.19,38.11-.05,17.22,14.9,27.83,41.39,27.75,39.35-.13,61.95-20.88,70.27-30.32m5.9,68.97c18.65-27.4,37.14-56.81,50-74.37-5.4-2.87-10.87-5.55-16.36-8.1-6.13,8.62-84.95,125.17-90.39,134.44-4.58,7.82-5.61,11.14-5.61,13.32,0,1.83,1.02,3.37,3.55,3.37,3.04,0,6.33-2.03,10.95-6.07,11.87-10.34,26.99-31.95,47.85-62.6m37.66-25.94l6.07-9.11c17.67,0,31.6-.37,41.6-5.1,22.27-10.62,33.92-35.6,33.92-48.67,0-8.93-3.5-16.1-14.89-16.1-17.24,0-32.69,16.71-42.61,29.48,8.63,5.2,14.63,9.7,18.93,13.08l-4.1,5.34c-5.47-4.35-11.91-8.77-19.07-12.94-10.81,14.53-35.46,52.87-52.47,77.95,11.2-7.45,25.61-9.88,34.91-9.88v6.94c-32.62.53-52.86,22.61-52.86,45.45,0,12.31,6.59,20.83,24.21,20.83,40.91,0,69.02-44.1,69.02-73.04,0-13.11-4.69-24.8-25.34-24.8h-9.79c-3.34,0-6,.24-7.55.57"/>
    </g>
  </g>
</svg>