<?xml version="1.0" encoding="UTF-8"?>
<svg id="_레이어_2" data-name="레이어 2" xmlns="http://www.w3.org/2000/svg" viewBox="0 0 54.66 56.87">
  <defs>
    <style>
      .cls-1 {
        fill: #0a0541;
        stroke: #0a0541;
        stroke-miterlimit: 10;
      }
    </style>
  </defs>
  <g id="_레이어_1-2" data-name="레이어 1">
    <path class="cls-1" d="m54.28,54.25l-12.28-14.28c3.71-4.19,5.99-9.69,5.99-15.73,0-13.11-10.63-23.74-23.75-23.74C11.13.5.5,11.13.5,24.24c0,13.12,10.63,23.74,23.74,23.74,5.91,0,11.29-2.17,15.45-5.73l12.29,14.29M9.75,38.74c-3.71-3.71-6-8.83-6-14.49,0-5.67,2.29-10.78,6-14.49,3.71-3.71,8.83-6,14.49-6,5.67,0,10.78,2.29,14.49,6,3.71,3.71,6,8.83,6,14.49,0,5.67-2.29,10.78-6,14.49-3.71,3.71-8.83,6-14.49,6-5.67,0-10.78-2.29-14.49-6Z"/>
  </g>
</svg>